<svg xmlns="http://www.w3.org/2000/svg" width="116" height="40" viewBox="0 0 116 40">
    <g fill="none" fill-rule="evenodd">
        <g fill="#1C1D1A" fill-rule="nonzero">
            <g>
                <path d="M29.815 21.627L22.201 8.471 14.587 21.627 9.144 7.419 0 7.419 12.299 40 22.201 22.642 32.102 40 44.406 7.419 35.257 7.419zM47.656 7.419H55.817V38.801H47.656zM86.289 18.404C86.286 12.35 81.39 7.435 75.336 7.41H61.522v31.392h8.261v-9.433h3.68L79.57 38.8h9.654l-7.72-11.347c2.995-2.04 4.786-5.428 4.786-9.05zM75.336 15.07c1.788.071 3.201 1.542 3.201 3.331 0 1.79-1.413 3.26-3.201 3.332h-5.974V15.08l5.974-.01zM100.008 31.345L100.008 26.576 113.942 26.576 113.942 19.65 100.008 19.65 100.008 14.876 114.842 14.876 114.842 7.419 92.552 7.419 92.552 38.801 115.32 38.801 115.32 31.345zM1.714 5.295L2.766 5.295 2.766 1.052 4.301 1.052 4.301 0 .179 0 .179 1.052 1.714 1.052zM5.942 3.192L8.082 3.192 8.082 5.295 9.134 5.295 9.134.037 8.082.037 8.082 2.14 5.942 2.14 5.942.037 4.89.037 4.89 5.295 5.942 5.295zM11.221 5.3L13.85 5.3 13.85 4.249 11.747 4.249 11.747 3.202 13.85 3.202 13.85 2.151 11.747 2.151 11.747 1.099 13.85 1.099 13.85.047 11.747.047 11.747.037 10.695.037 10.695 5.295 11.221 5.295z" transform="translate(-30.000000, -30.000000) translate(30.000000, 30.000000)"/>
            </g>
        </g>
    </g>
</svg>
