<svg  class="hide" id="close" data-name="Layer 1" xmlns="http://www.w3.org/2000/svg" viewBox="0 0 160 160"><defs><style>.cls-1{fill:#b71c1c;}</style></defs><title>icons</title><rect class="cls-1" x="55.3" y="55.9" width="49.4" height="4.12" transform="translate(64.4 -39.6) rotate(45)"/><path class="cls-1" d="M60.7,111.9a6.1,6.1,0,0,1-1.9-.3,3.8,3.8,0,0,1-1.4-.8,3.7,3.7,0,0,1-.9-1.2,5.8,5.8,0,0,1-.5-1.5,11.3,11.3,0,0,1-.1-1.8v-5.8a11.7,11.7,0,0,1,.1-1.9,6.1,6.1,0,0,1,.5-1.6,3.4,3.4,0,0,1,.9-1.2,3.8,3.8,0,0,1,1.4-.7l1.9-.3a6.1,6.1,0,0,1,2.1.3,3.2,3.2,0,0,1,1.4,1,4.1,4.1,0,0,1,.7,1.5,7.7,7.7,0,0,1,.2,2v1.4H62.3V99.7a6.9,6.9,0,0,0-.1-1.7,1.3,1.3,0,0,0-1.3-.9h-.8l-.5.3-.3.4a2,2,0,0,0-.2.6,6.3,6.3,0,0,0-.1.7c0,.2,0,.5,0,.8v7.1a4.4,4.4,0,0,0,.4,2.1,1.4,1.4,0,0,0,1.3.6h.6l.4-.2.3-.3.2-.4a2.5,2.5,0,0,0,.1-.5v-.6q0-.2,0-.6v-1.5h2.9v1.4a9.8,9.8,0,0,1-.1,1.7,5.3,5.3,0,0,1-.4,1.4,3.3,3.3,0,0,1-.8,1.1,3.6,3.6,0,0,1-1.3.7Z"/><path class="cls-1" d="M67.3,111.7V95h3v14.6h4v2.1Z"/><path class="cls-1" d="M80.3,111.9a4.4,4.4,0,0,1-3.7-1.4,6.4,6.4,0,0,1-1.1-4.1v-6.1a9.3,9.3,0,0,1,.3-2.3,4.5,4.5,0,0,1,.8-1.7,3.4,3.4,0,0,1,1.5-1.1,6.3,6.3,0,0,1,2.3-.4A4.5,4.5,0,0,1,84,96.2a6.3,6.3,0,0,1,1.1,4v6.1a9.2,9.2,0,0,1-.3,2.3,4.8,4.8,0,0,1-.8,1.7,3.4,3.4,0,0,1-1.5,1.1A6.1,6.1,0,0,1,80.3,111.9Zm-.8-2.4h1.5l.5-.3.3-.6a3.6,3.6,0,0,0,.1-.7,8.1,8.1,0,0,0,0-.8V99.6a7,7,0,0,0-.1-1,2.6,2.6,0,0,0-.2-.8,1.1,1.1,0,0,0-.5-.5l-.9-.2-.9.2a1.1,1.1,0,0,0-.5.5,2.7,2.7,0,0,0-.2.8,6.8,6.8,0,0,0-.1,1v7.6a8.1,8.1,0,0,0,0,.8,3.6,3.6,0,0,0,.1.7l.3.6Z"/><path class="cls-1" d="M91.5,111.9q-4.4,0-4.6-5.1l2.6-.6q.1,3.3,1.9,3.3a1.2,1.2,0,0,0,1-.4,1.8,1.8,0,0,0,.3-1.1,3.2,3.2,0,0,0-.3-1.3,3.4,3.4,0,0,0-.6-.9l-.9-.9L88.8,103a6.1,6.1,0,0,1-1.4-1.8,4.9,4.9,0,0,1-.5-2.3,3.9,3.9,0,0,1,1.1-3,4.5,4.5,0,0,1,3.1-1.1l1.6.2,1.2.6a3.3,3.3,0,0,1,.8,1,5.4,5.4,0,0,1,.5,1.2,9.3,9.3,0,0,1,.2,1.4l-2.6.5q0-.5-.1-.9a4.8,4.8,0,0,0-.2-.8l-.3-.6-.5-.4h-.7a1.4,1.4,0,0,0-1,.4,1.6,1.6,0,0,0-.4,1.1,2.5,2.5,0,0,0,.3,1.3,5.1,5.1,0,0,0,1,1.1l2.2,1.9.9,1,.8,1.1a4.8,4.8,0,0,1,.6,1.3,5.8,5.8,0,0,1,.2,1.5,4,4,0,0,1-1.2,3A4.1,4.1,0,0,1,91.5,111.9Z"/><path class="cls-1" d="M97.5,111.7V95h7v2.1h-3.9V102h3.1v2.1h-3.1v5.5h4v2.1Z"/><rect class="cls-1" x="55.3" y="55.9" width="49.4" height="4.12" transform="translate(-17.5 73.5) rotate(-45)"/></svg>