<svg id="Layer_1" data-name="Layer 1" xmlns="http://www.w3.org/2000/svg" viewBox="0 0 160 160"><defs><style>.cls-1{fill:#b71c1c;}</style></defs><title>icons</title><rect class="cls-1" x="55" y="70.2" width="50" height="4.17"/><path class="cls-1" d="M58.2,112.1l.3-16.9h3.2L64,107.1l2.5-11.9h3.1l.3,16.9H67.6l-.2-11.6L65,112.1H63.2l-2.5-11.7-.2,11.7Z"/><path class="cls-1" d="M72.4,112.1V95.3h7.1v2.2h-4v4.8h3.2v2.2H75.5V110h4v2.1Z"/><path class="cls-1" d="M81.3,112.1V95.3h2.1l4.1,9.6V95.3h2.5v16.9h-2l-4.2-10v10Z"/><path class="cls-1" d="M97.2,112.3a6.5,6.5,0,0,1-2-.3,3.7,3.7,0,0,1-1.4-.7,3.4,3.4,0,0,1-.9-1.2,6.5,6.5,0,0,1-.4-1.6,14.2,14.2,0,0,1-.1-2V95.3h3v11.5c0,.4,0,.7,0,1a6,6,0,0,0,.1.9,2.1,2.1,0,0,0,.3.7l.5.5.8.2.8-.2.5-.5a2.3,2.3,0,0,0,.3-.7,5.2,5.2,0,0,0,.1-.9c0-.3,0-.6,0-1V95.3h3v11.2a14.1,14.1,0,0,1-.1,2,6.5,6.5,0,0,1-.4,1.6,3.5,3.5,0,0,1-.8,1.2,3.6,3.6,0,0,1-1.4.7A6.4,6.4,0,0,1,97.2,112.3Z"/><rect class="cls-1" x="55" y="55.6" width="50" height="4.17"/><rect class="cls-1" x="55" y="41.1" width="50" height="4.17"/></svg>
