<svg id="search-icon" xmlns="http://www.w3.org/2000/svg" width="36" height="35" viewBox="0 0 36 35">
    <g fill="none" fill-rule="evenodd">
        <g fill="#FFF" fill-rule="nonzero">
            <g>
                <path d="M16.323 12.675c-2.295 0-4.152 1.858-4.152 4.151 0 2.295 1.859 4.151 4.152 4.151 2.295 0 4.151-1.858 4.151-4.15 0-2.294-1.858-4.152-4.151-4.152z" transform="translate(-1375.000000, -113.000000) translate(1375.000000, 113.000000)"/>
                <path d="M34.17 8.633s-1.13-5.39-6.01-7.284C25.865.439 21.676.037 17.56 0 13.444.037 9.256.438 6.961 1.312 2.081 3.205.951 8.596.951 8.596c-.728 3.059-.983 6.155-.947 8.886-.037 2.732.182 5.865.947 8.886 0 0 1.13 5.391 6.01 7.285 2.295.873 6.483 1.311 10.6 1.347 4.115-.037 8.304-.437 10.599-1.347 4.88-1.894 6.01-7.285 6.01-7.285.728-3.058.983-6.154.947-8.886.036-2.694-.184-5.827-.948-8.85v.001zM24.115 24.95c-.254.255-.546.364-.91.364s-.656-.145-.91-.364l-2.66-2.66-.037.038c-.983.619-2.148.91-3.278.91-3.532 0-6.41-2.876-6.41-6.41 0-3.533 2.876-6.412 6.41-6.412 3.533 0 6.411 2.877 6.411 6.411 0 1.275-.364 2.513-1.092 3.606l-.11.145 2.586 2.586c.255.255.365.546.365.91 0 .33-.145.658-.365.876z" transform="translate(-1375.000000, -113.000000) translate(1375.000000, 113.000000)"/>
            </g>
        </g>
    </g>
</svg>
